<svg xmlns="http://www.w3.org/2000/svg" xmlns:xlink="http://www.w3.org/1999/xlink" contentStyleType="text/css" data-diagram-type="DESCRIPTION" height="1095px" preserveAspectRatio="none" style="width:848px;height:1095px;background:#FFFFFF;" version="1.1" viewBox="0 0 848 1095" width="848px" zoomAndPan="magnify"><title>Podman Isolated Lab - Attacker / Victim / Observer (Lab-only)</title><defs/><g><g class="title" data-source-line="9"><text fill="#000000" font-family="sans-serif" font-size="14" font-weight="bold" lengthAdjust="spacing" textLength="427.7404" x="203.4886" y="24.9659">Podman Isolated Lab - Attacker / Victim / Observer (Lab-only)</text></g><!--cluster HOST--><g class="cluster" data-entity="HOST" data-source-line="11" data-uid="ent0002" id="cluster_HOST"><rect fill="#EFEFEF" height="1042" rx="2.5" ry="2.5" style="stroke:#000000;stroke-width:1;" width="626" x="7" y="47.0679"/><text fill="#000000" font-family="sans-serif" font-size="14" font-style="italic" lengthAdjust="spacing" textLength="41.4538" x="299.2731" y="64.0339">&#171;Host&#187;</text><text fill="#000000" font-family="sans-serif" font-size="14" font-weight="bold" lengthAdjust="spacing" textLength="93.7716" x="273.1142" y="83.1018">Podman Host</text><text fill="#000000" font-family="sans-serif" font-size="14" font-weight="bold" lengthAdjust="spacing" textLength="85.2597" x="277.3702" y="102.1697">(air-gapped)</text></g><!--cluster POD--><g class="cluster" data-entity="POD" data-source-line="12" data-uid="ent0003" id="cluster_POD"><rect fill="#F7F7FF" height="734" rx="2.5" ry="2.5" style="stroke:#000000;stroke-width:1;" width="554" x="39" y="139.0679"/><text fill="#000000" font-family="sans-serif" font-size="14" font-style="italic" lengthAdjust="spacing" textLength="37.2819" x="297.3591" y="156.0339">&#171;Pod&#187;</text><text fill="#000000" font-family="sans-serif" font-size="14" font-weight="bold" lengthAdjust="spacing" textLength="152.0254" x="239.9873" y="175.1018">Isolated Pod Network</text></g><!--cluster ATK--><g class="cluster" data-entity="ATK" data-source-line="13" data-uid="ent0004" id="cluster_ATK"><rect fill="#FFFFFF" height="171" rx="2.5" ry="2.5" style="stroke:#000000;stroke-width:1;" width="355" x="175" y="212.0679"/><text fill="#000000" font-family="sans-serif" font-size="14" font-style="italic" lengthAdjust="spacing" textLength="74.4377" x="315.2811" y="229.0339">&#171;Container&#187;</text><text fill="#000000" font-family="sans-serif" font-size="14" font-weight="bold" lengthAdjust="spacing" textLength="59.5697" x="322.7151" y="248.1018">attacker</text><text fill="#000000" font-family="sans-serif" font-size="14" font-weight="bold" lengthAdjust="spacing" textLength="35.7839" x="334.6081" y="267.1697">(Kali)</text></g><!--cluster VICTIM--><g class="cluster" data-entity="VICTIM" data-source-line="21" data-uid="ent0008" id="cluster_VICTIM"><rect fill="#FFFFFF" height="171" rx="2.5" ry="2.5" style="stroke:#000000;stroke-width:1;" width="287" x="71" y="450.0679"/><text fill="#000000" font-family="sans-serif" font-size="14" font-style="italic" lengthAdjust="spacing" textLength="74.4377" x="177.2811" y="467.0339">&#171;Container&#187;</text><text fill="#000000" font-family="sans-serif" font-size="14" font-weight="bold" lengthAdjust="spacing" textLength="43.5258" x="192.7371" y="486.1018">victim</text><text fill="#000000" font-family="sans-serif" font-size="14" font-weight="bold" lengthAdjust="spacing" textLength="101.9196" x="163.5402" y="505.1697">(Debian Trixie)</text></g><!--cluster OBS--><g class="cluster" data-entity="OBS" data-source-line="29" data-uid="ent0012" id="cluster_OBS"><rect fill="#FFFFFF" height="153" rx="2.5" ry="2.5" style="stroke:#000000;stroke-width:1;" width="275" x="220" y="688.0679"/><text fill="#000000" font-family="sans-serif" font-size="14" font-style="italic" lengthAdjust="spacing" textLength="74.4377" x="320.2811" y="705.0339">&#171;Container&#187;</text><text fill="#000000" font-family="sans-serif" font-size="14" font-weight="bold" lengthAdjust="spacing" textLength="61.7118" x="326.6441" y="724.1018">observer</text><text fill="#000000" font-family="sans-serif" font-size="14" font-weight="bold" lengthAdjust="spacing" textLength="101.9196" x="306.5402" y="743.1697">(Debian Trixie)</text></g><!--cluster STORE--><g class="cluster" data-entity="STORE" data-source-line="37" data-uid="ent0016" id="cluster_STORE"><rect fill="#FFFFFF" height="117" rx="2.5" ry="2.5" style="stroke:#000000;stroke-width:1;" width="243" x="220" y="932.0679"/><text fill="#000000" font-family="sans-serif" font-size="14" font-style="italic" lengthAdjust="spacing" textLength="74.4377" x="304.2811" y="949.0339">&#171;Container&#187;</text><text fill="#000000" font-family="sans-serif" font-size="14" font-weight="bold" lengthAdjust="spacing" textLength="121.8975" x="280.5512" y="968.1018">Storage / Reports</text></g><g class="entity" data-entity="GMN5" data-source-line="15" data-uid="ent0006" id="entity_GMN5"><path d="M218.5,296.0679 L218.5,359.186 L505.8572,359.186 L505.8572,306.0679 L495.8572,296.0679 L218.5,296.0679" fill="#FEFFDD" style="stroke:#181818;stroke-width:0.5;"/><path d="M495.8572,296.0679 L495.8572,306.0679 L505.8572,306.0679 L495.8572,296.0679" fill="#FEFFDD" style="stroke:#181818;stroke-width:1;"/><text fill="#000000" font-family="sans-serif" font-size="13" lengthAdjust="spacing" textLength="187.5902" x="224.5" y="314.9649">- Kali Linux container (lab-only)</text><text fill="#000000" font-family="sans-serif" font-size="13" lengthAdjust="spacing" textLength="266.3572" x="224.5" y="332.6709">- use for analysis, replay, or IDS testing only</text><text fill="#000000" font-family="sans-serif" font-size="13" lengthAdjust="spacing" textLength="182.1562" x="224.5" y="350.377">- no upstream Internet access</text></g><g class="entity" data-entity="GMN9" data-source-line="23" data-uid="ent0010" id="entity_GMN9"><path d="M114.5,534.0679 L114.5,597.186 L333.1522,597.186 L333.1522,544.0679 L323.1522,534.0679 L114.5,534.0679" fill="#FEFFDD" style="stroke:#181818;stroke-width:0.5;"/><path d="M323.1522,534.0679 L323.1522,544.0679 L333.1522,544.0679 L323.1522,534.0679" fill="#FEFFDD" style="stroke:#181818;stroke-width:1;"/><text fill="#000000" font-family="sans-serif" font-size="13" lengthAdjust="spacing" textLength="197.6522" x="120.5" y="552.9649">- Target service (HTTP / test app)</text><text fill="#000000" font-family="sans-serif" font-size="13" lengthAdjust="spacing" textLength="190.0082" x="120.5" y="570.6709">- hardened via sysctl &amp; nftables</text><text fill="#000000" font-family="sans-serif" font-size="13" lengthAdjust="spacing" textLength="158.7562" x="120.5" y="588.377">- resource limits (cgroups)</text></g><g class="entity" data-entity="GMN13" data-source-line="31" data-uid="ent0014" id="entity_GMN13"><path d="M263.5,772.0679 L263.5,817.4799 L470.9332,817.4799 L470.9332,782.0679 L460.9332,772.0679 L263.5,772.0679" fill="#FEFFDD" style="stroke:#181818;stroke-width:0.5;"/><path d="M460.9332,772.0679 L460.9332,782.0679 L470.9332,782.0679 L460.9332,772.0679" fill="#FEFFDD" style="stroke:#181818;stroke-width:1;"/><text fill="#000000" font-family="sans-serif" font-size="13" lengthAdjust="spacing" textLength="186.4332" x="269.5" y="790.9649">- tcpdump / Wireshark / tshark</text><text fill="#000000" font-family="sans-serif" font-size="13" lengthAdjust="spacing" textLength="168.4671" x="269.5" y="808.6709">- PCAP storage and analysis</text></g><g class="entity" data-entity="GMN17" data-source-line="39" data-uid="ent0018" id="entity_GMN17"><path d="M263,997.0679 L263,1024.7739 L438.9991,1024.7739 L438.9991,1007.0679 L428.9991,997.0679 L263,997.0679" fill="#FEFFDD" style="stroke:#181818;stroke-width:0.5;"/><path d="M428.9991,997.0679 L428.9991,1007.0679 L438.9991,1007.0679 L428.9991,997.0679" fill="#FEFFDD" style="stroke:#181818;stroke-width:1;"/><text fill="#000000" font-family="sans-serif" font-size="13" lengthAdjust="spacing" textLength="154.9991" x="269" y="1015.9649">- PCAPs, metrics, IDS logs</text></g><!--entity External Network (blocked)--><g class="entity" data-entity="External Network .blocked." data-source-line="49" data-uid="ent0024" id="entity_External Network .blocked."><ellipse cx="753" cy="565.5679" fill="#F1F1F1" rx="8" ry="8" style="stroke:#181818;stroke-width:0.5;"/><text fill="#000000" font-family="sans-serif" font-size="14" lengthAdjust="spacing" textLength="177.4353" x="664.2823" y="597.5339">External Network (blocked)</text></g><!--link ATK to GMN5--><g class="link" data-entity-1="ATK" data-entity-2="GMN5" data-source-line="15" data-uid="lnk7" id="link_ATK_GMN5"><path d="M183.7,327.5679 C195.19,327.5679 206.68,327.5679 218.18,327.5679" fill="none" id="ATK-GMN5" style="stroke:#181818;stroke-width:1;stroke-dasharray:7,7;"/></g><!--link VICTIM to GMN9--><g class="link" data-entity-1="VICTIM" data-entity-2="GMN9" data-source-line="23" data-uid="lnk11" id="link_VICTIM_GMN9"><path d="M79.57,565.5679 C91.13,565.5679 102.7,565.5679 114.26,565.5679" fill="none" id="VICTIM-GMN9" style="stroke:#181818;stroke-width:1;stroke-dasharray:7,7;"/></g><!--link OBS to GMN13--><g class="link" data-entity-1="OBS" data-entity-2="GMN13" data-source-line="31" data-uid="lnk15" id="link_OBS_GMN13"><path d="M228.54,794.5679 C240.17,794.5679 251.8,794.5679 263.43,794.5679" fill="none" id="OBS-GMN13" style="stroke:#181818;stroke-width:1;stroke-dasharray:7,7;"/></g><!--link STORE to GMN17--><g class="link" data-entity-1="STORE" data-entity-2="GMN17" data-source-line="39" data-uid="lnk19" id="link_STORE_GMN17"><path d="M228.48,1011.0679 C239.97,1011.0679 251.45,1011.0679 262.94,1011.0679" fill="none" id="STORE-GMN17" style="stroke:#181818;stroke-width:1;stroke-dasharray:7,7;"/></g><!--link ATK to VICTIM--><g class="link" data-entity-1="ATK" data-entity-2="VICTIM" data-source-line="45" data-uid="lnk20" id="link_ATK_VICTIM"><path d="M174.9814,335.5859 C174.8096,335.7412 174.6356,335.8989 174.4592,336.059 C173.7539,336.6992 173.0124,337.3771 172.2373,338.0914 C166.0372,343.8054 157.6969,351.8467 148.6738,361.5379 C130.6275,380.9204 109.85,406.9029 98,434.0679 C96.5581,437.3729 95.2218,440.7652 93.9834,444.2216 C93.3642,445.9498 94.6241,441.9878 94.0529,443.7451" fill="none" id="ATK-to-VICTIM" style="stroke:#0000FF;stroke-width:1;"/><polygon fill="#0000FF" points="92.1983,449.4512,98.7843,442.1283,93.7438,444.6961,91.1761,439.6556,92.1983,449.4512" style="stroke:#0000FF;stroke-width:1;"/><text fill="#000000" font-family="sans-serif" font-size="13" lengthAdjust="spacing" textLength="135.2261" x="113" y="421.9649">Lab network (isolated)</text></g><!--link ATK to OBS--><g class="link" data-entity-1="ATK" data-entity-2="OBS" data-source-line="46" data-uid="lnk21" id="link_ATK_OBS"><path d="M190.5258,383.0783 C190.6291,383.302 190.7337,383.5251 190.8396,383.7474 C191.0514,384.192 191.2684,384.6339 191.4907,385.0726 C192.3799,386.8274 193.3542,388.5326 194.4213,390.1712 C196.5556,393.4484 199.0613,396.4592 202,399.0679 C211.24,407.2679 244.93,404.4479 257,407.0679 C299.06,416.1879 324.15,399.6479 350,434.0679 C404.18,506.2079 397.14,560.1379 350,637.0679 C336.19,659.6079 322.14,655.8779 297,664.0679 C275.6,671.0379 262.89,656.1279 247,672.0679 C244.6263,674.4498 242.4727,676.9985 240.5211,679.6844 C239.5453,681.0274 238.6201,682.4046 237.7431,683.8125 C237.3046,684.5165 236.8781,685.2281 236.4635,685.9469 C236.2561,686.3063 236.0518,686.6675 235.8503,687.0304 C235.7495,687.2119 238.5189,682.1244 238.4196,682.3067" fill="none" id="ATK-to-OBS" style="stroke:#0000FF;stroke-width:1;"/><polygon fill="#0000FF" points="235.5502,687.5761,243.3673,681.585,237.9414,683.185,236.3414,677.7591,235.5502,687.5761" style="stroke:#0000FF;stroke-width:1;"/><text fill="#000000" font-family="sans-serif" font-size="13" lengthAdjust="spacing" textLength="158.1711" x="390" y="570.9649">Traffic mirrored/observed</text></g><!--link VICTIM to OBS--><g class="link" data-entity-1="VICTIM" data-entity-2="OBS" data-source-line="47" data-uid="lnk22" id="link_VICTIM_OBS"><path d="M91.1519,621.1395 C91.2379,621.379 91.3244,621.6182 91.4115,621.8573 C91.5856,622.3354 91.762,622.8127 91.9407,623.2889 C92.298,624.2413 92.6643,625.1895 93.0398,626.1319 C94.5419,629.9015 96.1913,633.5792 98,637.0679 C118.48,676.5779 150.2925,715.1079 177.3213,744.0504 C190.8356,758.5217 203.1541,770.596 212.262,779.1976 C214.539,781.348 216.6154,783.2813 218.4596,784.9808 C218.9206,785.4057 214.9432,781.7627 215.3747,782.1581" fill="none" id="VICTIM-to-OBS" style="stroke:#008000;stroke-width:1;"/><polygon fill="#008000" points="219.7987,786.2113,215.8649,777.1822,216.1121,782.8336,210.4606,783.0808,219.7987,786.2113" style="stroke:#008000;stroke-width:1;"/><text fill="#000000" font-family="sans-serif" font-size="13" lengthAdjust="spacing" textLength="175.1882" x="113" y="659.9649">Observed by observer (pcap)</text></g><!--link OBS to STORE--><g class="link" data-entity-1="OBS" data-entity-2="STORE" data-source-line="48" data-uid="lnk23" id="link_OBS_STORE"><path d="M228,841.7688 C228,842.1095 228,842.4514 228,842.7945 C228,844.1669 228,845.5587 228,846.9684 C228,852.607 228,858.5312 228,864.6459 C228,876.8753 228,889.8664 228,902.8567 C228,909.3518 228,915.8468 228,922.2463 C228,925.4461 228,922.622 228,925.7621" fill="none" id="OBS-to-STORE" style="stroke:#AA00AA;stroke-width:1;"/><polygon fill="#AA00AA" points="228,931.7621,232,922.7621,228,926.7621,224,922.7621,228,931.7621" style="stroke:#AA00AA;stroke-width:1;"/><text fill="#000000" font-family="sans-serif" font-size="13" lengthAdjust="spacing" textLength="121.4981" x="229" y="903.9649">PCAP files &amp; reports</text></g><!--link HOST to External Network (blocked)--><g class="link" data-entity-1="HOST" data-entity-2="External Network .blocked." data-source-line="49" data-uid="lnk25" id="link_HOST_External Network .blocked."><path d="M633.0166,343.353 C633.2445,343.7732 633.4766,344.2012 633.7128,344.6368 C634.1853,345.508 634.6744,346.4097 635.1793,347.3407 C637.199,351.0646 639.4729,355.2571 641.958,359.8392 C651.8984,378.1673 665.2194,402.7279 679.1788,428.4654 C707.0975,479.9404 734.7092,530.8489 745.7992,551.2939" fill="none" id="HOST-to-External Network (blocked)" style="stroke:#000000;stroke-width:1;stroke-dasharray:7,7;"/><polygon fill="#000000" points="748.66,556.5679,747.8848,546.7496,746.276,552.1729,740.8527,550.564,748.66,556.5679" style="stroke:#000000;stroke-width:1;"/><text fill="#000000" font-family="sans-serif" font-size="13" lengthAdjust="spacing" textLength="148.3691" x="678" y="421.9649">No internet / air-gapped</text></g><!--SRC=[ZLJBRjim4BphAnOAqCX03FlMeWW2A4wC67dOY8NqqFP0IIjbOOeKIDgDKUJVizJ3KLeV8bqeQeQSsTSfh7HU2GLajHGESv0YXK8RiA90MCpkLs2fsl8_qWgY70jKbdOugRGYfmsf4hII-r5WDwHgOKG51ZCdL2aH_WO0boBRb4PlLJxJKflpynjjtSK5d5pF_NiCmPeyOFwLtwE0cLPEa4BJm9h7mxJ9qJGGI2LpWjSWSEHOIEToqRkyOvTZY9rZ51gOm1DbZYfUB5EBPiTx4MF6hRNWtL7OdUHD_5AH83CkHLrZFWf1MBXPhXCuMFJs1zJ3xNm6FA3xeyscOQsMLz2xzfmFBD69vDjkXQJsdZYvXOzXQ7a0IZi4G-Mp0rruNBSFxDVpuOxKzWModWgHFFXyHsujDbKWb91xI_QC5TLIxC-0DnTNQt1eNP_x0KzfsDRM6UGoM2Y7Hg43aMLeROT2bJSQcq_EppzkTqqUsEiLfiHnJWoz4BQcdnQpP77_ATyjT20i4QPaAJwtb254Dqcoucnx6y3v6tf_5bn6YjEq8m5sRpCduGkemebKeXq03LgzDNoQf8gSXIZpHLhRqUUiwgxIZfjTNgu_vPHn0qakg_DjLREp7yJosCh6ksmM0zXg5dDVS_kA4Zd7-I7FnvLtwWVQrnrt0ezOQ-DietcTB1-lZwh-gBd11KCnN60LEaCPBtnvILssMWPANdqxd_hALIo4nv4DV1kCVvvC-PdFVuyl-XBv3g7lSDNs64JzT1k5_rDye1cV654Kb455ncY3-QHBJnu6tQ4Dwnlp1gnkMkIGxa4V9aUTYPglyXWcnV5q6iUUrCQ7QKty2-9ouieoNGI3PdXqsgRJirpOPymzBxn-yQqaP3yr84gbvg7WfmuVzw21-cQRmFjC2eCt]--></g></svg>